<?xml version="1.0" encoding="UTF-8" standalone="no"?>
<svg
   width="24"
   height="24"
   viewBox="0 0 24 24"
   fill="none"
   version="1.1"
   id="svg28"
   sodipodi:docname="cactusrigging.svg"
   inkscape:version="1.2.1 (9c6d41e410, 2022-07-14)"
   xmlns:inkscape="http://www.inkscape.org/namespaces/inkscape"
   xmlns:sodipodi="http://sodipodi.sourceforge.net/DTD/sodipodi-0.dtd"
   xmlns="http://www.w3.org/2000/svg"
   xmlns:svg="http://www.w3.org/2000/svg">
  <sodipodi:namedview
     id="namedview30"
     pagecolor="#ffffff"
     bordercolor="#000000"
     borderopacity="0.25"
     inkscape:showpageshadow="2"
     inkscape:pageopacity="0.0"
     inkscape:pagecheckerboard="0"
     inkscape:deskcolor="#d1d1d1"
     showgrid="false"
     inkscape:zoom="16"
     inkscape:cx="14.375"
     inkscape:cy="7.8125"
     inkscape:window-width="2560"
     inkscape:window-height="1387"
     inkscape:window-x="1912"
     inkscape:window-y="-8"
     inkscape:window-maximized="1"
     inkscape:current-layer="layer1" />
  <defs
     id="defs26">
    <clipPath
       id="clip0">
      <rect
         width="24"
         height="17"
         fill="white"
         transform="translate(0 3.5)"
         id="rect23" />
    </clipPath>
  </defs>
  <g
     inkscape:label="Layer 1"
     inkscape:groupmode="layer"
     id="layer1"
     transform="matrix(0.43423052,0,0,0.43423052,-18.295362,-30.440396)">
    <path
       style="fill:#ffffff;stroke-width:0.0609588"
       d="m 83.844835,124.95435 -7.453467,-0.14624 -14.705047,-5.82351 c -8.087773,-3.20294 -14.726177,-5.84423 -14.752003,-5.86955 -0.04348,-0.0426 0.158651,-2.97881 0.207796,-3.01845 0.01211,-0.01 0.227774,0.004 0.479229,0.0301 0.251455,0.0263 0.638103,0.0496 0.859214,0.0516 0.487019,0.005 0.540414,-0.0415 0.782621,-0.67583 0.09412,-0.24647 0.188955,-0.48995 0.210748,-0.54106 0.02973,-0.0697 -0.107386,-0.17612 -0.547704,-0.42529 -0.903281,-0.51115 -1.248081,-0.99216 -1.151901,-1.60697 0.02171,-0.13871 0.09827,-0.43956 0.170158,-0.66854 0.129223,-0.41161 0.129389,-0.41852 0.01461,-0.60959 -0.416382,-0.69307 -0.483041,-0.98106 -0.306223,-1.32298 0.100051,-0.19348 0.2572,-0.29033 0.730472,-0.4502 0.298195,-0.10072 0.314235,-0.11905 0.740858,-0.84644 0.690746,-1.17773 0.645756,-1.02957 0.697827,-2.29793 0.04841,-1.179231 0.07282,-1.323905 0.29852,-1.769542 0.31485,-0.621657 0.563841,-0.915012 1.181048,-1.391473 0.341339,-0.263509 0.70218,-0.581134 0.801864,-0.70583 0.09968,-0.124701 0.25829,-0.305719 0.352458,-0.402258 0.133401,-0.136763 0.158209,-0.199835 0.112326,-0.28557 -0.09056,-0.169215 -0.252833,-0.297339 -0.618555,-0.488393 -0.372703,-0.194704 -0.528165,-0.383575 -0.992001,-1.205208 -0.294133,-0.521018 -0.311091,-0.575498 -0.33701,-1.082412 -0.02676,-0.523138 -0.03365,-0.543454 -0.346145,-1.018433 -0.424119,-0.644649 -0.610142,-1.230784 -0.734647,-2.314749 -0.114693,-0.998551 -0.09132,-1.270351 0.148244,-1.723804 0.136286,-0.257968 0.184053,-0.460558 0.239506,-1.015836 l 0.06927,-0.693606 -0.258155,-0.520716 -0.258152,-0.520713 -0.03766,-2.016496 -0.03766,-2.016495 -0.258499,-0.853423 c -0.318339,-1.050986 -0.348583,-1.486473 -0.125861,-1.812186 0.182871,-0.267433 0.544548,-0.509748 0.933325,-0.625318 0.480356,-0.142791 1.433875,-0.224133 1.882531,-0.160597 0.62458,0.08845 0.797427,0.205015 1.105833,0.745739 0.177774,0.311688 0.564242,0.682792 0.673682,0.646891 0.08909,-0.02922 0.399194,-1.462137 0.67577,-3.122601 0.192946,-1.15838 0.222372,-1.500205 0.309409,-3.594023 0.0529,-1.272643 0.106986,-2.324693 0.120183,-2.337895 0.02584,-0.02584 37.837288,0.403443 37.857741,0.4298 0.0068,0.0087 0.07069,10.947263 0.142077,24.307897 0.07138,13.36063 0.146599,25.56076 0.167136,27.1114 l 0.03733,2.81935 -0.813813,-0.008 c -0.4476,-0.005 -4.167876,-0.074 -8.26728,-0.15442 z m -16.57434,-15.67108 c 2.285386,-1.6603 4.393483,-3.1928 4.684663,-3.40554 l 0.529418,-0.38682 4.702704,3.4176 c 2.586486,1.87969 4.717358,3.40295 4.735273,3.38504 0.01791,-0.0179 -0.767279,-2.49341 -1.744862,-5.50111 -0.977585,-3.00769 -1.769384,-5.50366 -1.75956,-5.54659 0.0099,-0.0429 2.116372,-1.602303 4.681215,-3.465286 2.564839,-1.862984 4.672488,-3.41458 4.683665,-3.447993 0.0134,-0.04008 -1.968858,-0.06075 -5.826013,-0.06075 h -5.846335 l -1.785678,-5.501528 c -0.982127,-3.02584 -1.803067,-5.520584 -1.824314,-5.543877 -0.02125,-0.02329 -0.847857,2.452196 -1.836915,5.501086 l -1.798282,5.543439 -5.836802,4.17e-4 c -3.379663,2.34e-4 -5.836802,0.02334 -5.836802,0.05482 0,0.02989 2.111269,1.586644 4.69171,3.45941 2.580445,1.872766 4.692662,3.428672 4.693828,3.457572 0.0017,0.0437 -3.479894,10.80037 -3.582141,11.06719 -0.045,0.11742 -0.367321,0.34565 4.275228,-3.0271 z m -6.2404,-11.560293 C 60.981005,97.676527 59.77874,96.796642 58.3584,95.767675 L 55.775967,93.89683 53.453665,93.35282 C 52.1764,93.053615 51.109691,92.808811 51.0832,92.808811 c -0.02651,0 -0.04817,0.176972 -0.04817,0.393273 0,0.354713 0.0306,0.451833 0.312048,0.990577 0.420782,0.805447 0.551758,0.966041 0.936176,1.147902 0.541053,0.25596 0.885336,0.741134 0.885336,1.247643 0,0.247468 -2.05e-4,0.247689 -0.2242,0.232605 -0.15406,-0.0104 -0.2325,0.01286 -0.250737,0.07429 -0.01461,0.04916 -0.216439,0.274551 -0.448543,0.50086 l -0.422006,0.411472 h 4.648123 c 3.963139,0 4.634972,-0.01244 4.558865,-0.08445 z m 31.22051,-2.231979 c -0.01265,-1.257275 -0.02638,-2.290083 -0.03048,-2.29513 -0.0042,-0.005 -0.685698,0.150139 -1.514668,0.344855 l -1.507223,0.354036 -2.546535,1.843181 c -1.400596,1.013748 -2.600828,1.894292 -2.667186,1.956759 -0.117757,0.11086 -0.01991,0.113207 4.084236,0.09791 l 4.204887,-0.01565 z M 67.855111,93.766973 c -0.05279,-0.04083 -3.983981,-3.448326 -8.735983,-7.572188 -4.751999,-4.123862 -8.679879,-7.506869 -8.728619,-7.517795 -0.169975,-0.03812 -0.698616,0.18369 -0.887132,0.372206 -0.178508,0.178513 -0.187902,0.210293 -0.156151,0.528386 0.01858,0.186149 0.1452,0.703831 0.281374,1.150411 l 0.247589,0.811956 0.03565,1.961665 0.03566,1.961664 0.208381,0.426712 c 0.114614,0.234692 0.245986,0.475037 0.291941,0.534098 0.04595,0.05906 3.303493,1.752566 7.238972,3.763345 l 7.155417,3.65596 1.554452,-8.4e-4 c 1.233961,-8.4e-4 1.534657,-0.01641 1.458466,-0.07534 z m 18.253595,-2.976708 c 3.290129,-1.680166 6.015942,-3.086599 6.057354,-3.125411 0.05907,-0.05536 0.06564,-0.810478 0.03048,-3.503202 l -0.04482,-3.432636 -7.49793,6.502769 c -4.123858,3.576521 -7.523987,6.527643 -7.555838,6.558046 -0.0347,0.03315 0.560308,0.05528 1.485391,0.05528 h 1.5433 z m -16.845404,0.825078 c 0.200286,-0.598773 0.363622,-1.130679 0.362966,-1.18202 -8.4e-4,-0.05134 -1.699463,-4.441224 -3.775123,-9.755305 l -3.773934,-9.661965 -0.720585,-0.03878 c -0.396321,-0.02133 -1.955002,-0.04666 -3.463732,-0.05628 l -2.743143,-0.0175 -0.03966,0.696345 c -0.02179,0.382986 -0.04686,1.002288 -0.05568,1.376226 l -0.01603,0.679883 0.213103,0.296624 c 0.284375,0.395833 12.911378,17.856899 13.296484,18.386851 0.165675,0.227987 0.312461,0.403289 0.326193,0.389557 0.01374,-0.01374 0.188838,-0.514871 0.389124,-1.113645 z M 83.858429,82.06239 c 4.212406,-5.826715 7.672568,-10.629574 7.689239,-10.673024 0.02446,-0.06374 -0.572667,-0.08682 -3.091292,-0.119478 -1.716886,-0.02226 -3.690474,-0.04045 -4.385754,-0.04045 h -1.264143 l -0.06082,0.167637 c -0.03344,0.0922 -1.709449,4.387399 -3.724447,9.544892 -2.014997,5.157487 -3.663633,9.421602 -3.663633,9.475802 0,0.08874 0.531876,1.812984 0.676964,2.194587 0.03461,0.09104 0.081,0.132333 0.112016,0.09973 0.0291,-0.03061 3.499458,-4.822958 7.711869,-10.649669 z m -12.15574,2.047892 c 0.413221,-1.280584 0.767942,-2.318056 0.788271,-2.305493 0.02033,0.01257 0.378748,1.080211 0.796487,2.372545 0.417735,1.292328 0.774238,2.350374 0.792233,2.351209 0.05126,0.0025 2.187176,-15.324976 2.14153,-15.367661 -0.02237,-0.02092 -1.72086,-0.05628 -3.77441,-0.07855 -3.207834,-0.03478 -3.733724,-0.02826 -3.733724,0.04627 0,0.04772 0.479956,3.511995 1.066563,7.698391 0.586612,4.186392 1.066659,7.637686 1.06678,7.669538 8.4e-4,0.20583 0.190295,-0.322352 0.85627,-2.386251 z"
       id="path187" />
    <path
       style="fill:#ffffff;stroke-width:0.0265485"
       d="m 72.427027,104.68529 c -0.269783,-0.53149 -0.700895,-0.87828 -1.727711,-1.38978 -0.807009,-0.40201 -1.219913,-0.74065 -1.61256,-1.32252 -0.255,-0.3779 -0.501921,-0.95738 -0.626509,-1.47031 -0.02572,-0.10587 -0.0541,-0.19221 -0.06307,-0.19189 -0.009,3.5e-4 -0.153709,0.0232 -0.321629,0.0508 -0.167917,0.0276 -0.307948,0.0476 -0.31118,0.0444 -0.01202,-0.0118 0.723332,-2.139279 0.739556,-2.139646 0.01912,-4.18e-4 1.374486,1.71457 1.392869,1.762476 0.0081,0.0212 -0.104126,0.05 -0.352183,0.0905 -0.200251,0.0327 -0.369508,0.0648 -0.376122,0.0714 -0.01712,0.0171 0.09419,0.31616 0.187728,0.50445 0.208201,0.41912 0.555135,0.83524 0.931149,1.11684 0.193138,0.14464 0.545988,0.33057 0.78562,0.41398 0.196236,0.0683 0.661866,0.18147 0.746854,0.18151 l 0.06733,3e-5 0.08645,-3.550849 c 0.04754,-1.952968 0.08594,-3.6076 0.08532,-3.676956 l -0.0013,-0.126099 -0.909284,-4.17e-4 c -0.839219,-4.18e-4 -0.917936,-0.0045 -1.021564,-0.05155 -0.291503,-0.132324 -0.295511,-0.552689 -0.0066,-0.697814 0.08271,-0.04154 0.190057,-0.04642 1.02422,-0.04646 l 0.93183,-4.2e-5 0.01712,-0.258846 c 0.0094,-0.142369 0.0172,-0.318602 0.01729,-0.391636 9.9e-5,-0.130679 -0.0017,-0.13381 -0.121457,-0.197292 -0.373751,-0.198273 -0.595717,-0.663349 -0.517974,-1.08528 0.130826,-0.710018 0.862875,-1.080265 1.506731,-0.762056 0.633798,0.313242 0.775102,1.135891 0.285097,1.659747 -0.06468,0.06915 -0.171194,0.154155 -0.236704,0.188908 l -0.119106,0.06319 2.54e-4,0.252257 c 1.01e-4,0.138741 0.0078,0.314975 0.01695,0.391632 l 0.01674,0.139381 0.932135,4.9e-5 c 0.834451,3e-5 0.941816,0.0049 1.024524,0.04646 0.283808,0.142591 0.283561,0.544599 -3.55e-4,0.69022 -0.114191,0.05856 -0.134649,0.05973 -1.036072,0.05973 h -0.919585 l 0.0094,0.192478 c 0.0052,0.105862 0.04674,1.757505 0.09237,3.670321 0.04564,1.912804 0.08703,3.482444 0.092,3.488094 0.01674,0.019 0.340513,-0.0522 0.607987,-0.13364 0.315092,-0.096 0.667579,-0.26567 0.911778,-0.43898 0.36244,-0.25723 0.740583,-0.70802 0.953548,-1.13674 0.09353,-0.18829 0.204824,-0.48735 0.187727,-0.50445 -0.0066,-0.007 -0.17587,-0.0387 -0.376126,-0.0714 -0.240667,-0.0392 -0.360182,-0.0696 -0.352554,-0.0895 0.01733,-0.0451 1.376352,-1.763885 1.394468,-1.763568 0.01582,2.34e-4 0.751158,2.127838 0.739013,2.138198 -0.0038,0.003 -0.148348,-0.0175 -0.32165,-0.0456 -0.173303,-0.0281 -0.317434,-0.0476 -0.32029,-0.0433 -0.0029,0.004 -0.03921,0.13336 -0.08077,0.28667 -0.191267,0.70554 -0.468883,1.25593 -0.871475,1.72777 -0.317834,0.37249 -0.71307,0.65794 -1.332702,0.96247 -0.969923,0.47671 -1.468566,0.865 -1.696875,1.32137 l -0.09281,0.18551 -0.0579,-0.11406 z m 0.347356,-11.711819 c 0.301681,-0.151605 0.378753,-0.573176 0.152005,-0.831428 -0.269637,-0.3071 -0.751855,-0.235502 -0.924436,0.137259 -0.170851,0.36902 0.159584,0.821216 0.56028,0.766727 0.05111,-0.007 0.146574,-0.03962 0.212151,-0.07256 z"
       id="path170"
       inkscape:label="path170" />
  </g>
</svg>
