<?xml version="1.0" encoding="UTF-8" standalone="no"?>
<svg
   width="24"
   height="24"
   viewBox="0 0 24 24"
   fill="none"
   version="1.1"
   id="svg13"
   sodipodi:docname="youtube.svg"
   inkscape:version="1.2.1 (9c6d41e410, 2022-07-14)"
   xmlns:inkscape="http://www.inkscape.org/namespaces/inkscape"
   xmlns:sodipodi="http://sodipodi.sourceforge.net/DTD/sodipodi-0.dtd"
   xmlns="http://www.w3.org/2000/svg"
   xmlns:svg="http://www.w3.org/2000/svg">
  <sodipodi:namedview
     id="namedview15"
     pagecolor="#ffffff"
     bordercolor="#000000"
     borderopacity="0.25"
     inkscape:showpageshadow="2"
     inkscape:pageopacity="0.0"
     inkscape:pagecheckerboard="0"
     inkscape:deskcolor="#d1d1d1"
     showgrid="false"
     inkscape:zoom="41.75"
     inkscape:cx="12"
     inkscape:cy="12"
     inkscape:window-width="2560"
     inkscape:window-height="1387"
     inkscape:window-x="1912"
     inkscape:window-y="-8"
     inkscape:window-maximized="1"
     inkscape:current-layer="svg13" />
  <g
     clip-path="url(#clip0)"
     id="g6"
     style="stroke-width:1;stroke-dasharray:none;fill:#ffffff;fill-opacity:1">
    <path
       d="M 23.4982,6.15419 C 23.2227,5.10952 22.4086,4.28694 21.3764,4.00726 19.5055,3.5 12,3.5 12,3.5 12,3.5 4.49455,3.5 2.62364,4.00726 1.59136,4.28694 0.777273,5.10952 0.501818,6.15419 0,8.04887 0,12 0,12 0,12 0,15.9511 0.501818,17.8458 0.777273,18.8905 1.59136,19.7131 2.62364,19.9927 4.49455,20.5 12,20.5 12,20.5 c 0,0 7.5055,0 9.3764,-0.5073 1.0322,-0.2796 1.8463,-1.1022 2.1218,-2.1469 C 24,15.9511 24,12 24,12 24,12 24,8.04887 23.4982,6.15419 Z"
       fill="#FF0000"
       id="path2"
       style="fill:#ffffff;fill-opacity:1;stroke-width:1;stroke-dasharray:none"
       clip-path="url(#clipPath1606)"
       inkscape:path-effect="#path-effect1610"
       inkscape:original-d="M23.4982 6.15419C23.2227 5.10952 22.4086 4.28694 21.3764 4.00726C19.5055 3.5 12 3.5 12 3.5C12 3.5 4.49455 3.5 2.62364 4.00726C1.59136 4.28694 0.777273 5.10952 0.501818 6.15419C0 8.04887 0 12 0 12C0 12 0 15.9511 0.501818 17.8458C0.777273 18.8905 1.59136 19.7131 2.62364 19.9927C4.49455 20.5 12 20.5 12 20.5C12 20.5 19.5055 20.5 21.3764 19.9927C22.4086 19.7131 23.2227 18.8905 23.4982 17.8458C24 15.9511 24 12 24 12C24 12 24 8.04887 23.4982 6.15419Z" />
  </g>
  <defs
     id="defs11">
    <inkscape:path-effect
       effect="powerclip"
       id="path-effect1610"
       is_visible="true"
       lpeversion="1"
       inverse="true"
       flatten="false"
       hide_clip="false"
       message="Use fill-rule evenodd on &lt;b&gt;fill and stroke&lt;/b&gt; dialog if no flatten result after convert clip to paths." />
    <clipPath
       id="clip0">
      <rect
         width="24"
         height="17"
         fill="white"
         transform="translate(0 3.5)"
         id="rect8" />
    </clipPath>
    <clipPath
       clipPathUnits="userSpaceOnUse"
       id="clipPath1606">
      <path
         d="M 9.54541,15.5878 15.8181,11.9999 9.54541,8.41211 Z"
         fill="white"
         id="path1608"
         style="display:none;fill:#000000;fill-opacity:1;stroke:#000000;stroke-width:1;stroke-dasharray:none;stroke-opacity:1" />
      <path
         id="lpe_path-effect1610"
         style="fill:#000000;fill-opacity:1;stroke:#000000;stroke-width:1;stroke-dasharray:none;stroke-opacity:1"
         class="powerclip"
         d="m -5,-1.5 h 34 v 27 H -5 Z M 9.54541,15.5878 15.8181,11.9999 9.54541,8.41211 Z" />
    </clipPath>
  </defs>
</svg>
